<mxfile host="app.diagrams.net" modified="2023-04-06T08:14:38.847Z" agent="Mozilla/5.0 (Windows NT 10.0; Win64; x64; rv:109.0) Gecko/20100101 Firefox/111.0" version="21.1.1" etag="zym_iJ2f1x_QCOar04fs" type="github">
  <diagram name="第 1 页" id="P0nbOkxIb4XPzEd-AZDk">
    <mxGraphModel>
      <root>
        <mxCell id="0" />
        <mxCell id="1" parent="0" />
      </root>
    </mxGraphModel>
  </diagram>
</mxfile>
